<?xml version="1.0" standalone="no"?>
<!DOCTYPE svg PUBLIC "-//W3C//DTD SVG 20010904//EN"
 "http://www.w3.org/TR/2001/REC-SVG-20010904/DTD/svg10.dtd">
<svg version="1.0" xmlns="http://www.w3.org/2000/svg"
 width="192.000000pt" height="192.000000pt" viewBox="0 0 192.000000 192.000000"
 preserveAspectRatio="xMidYMid meet">
<metadata>
Created by potrace 1.11, written by Peter Selinger 2001-2013
</metadata>
<g transform="translate(0.000000,192.000000) scale(0.100000,-0.100000)"
fill="#000000" stroke="none">
<path d="M217 1395 c-4 -9 -7 -42 -7 -73 0 -31 -7 -144 -15 -250 -9 -106 -16
-251 -18 -321 -2 -124 -1 -130 22 -155 37 -39 84 -51 201 -50 170 2 270 49
316 148 47 100 24 230 -49 277 l-34 23 31 21 c94 62 101 262 12 330 -61 47
-110 57 -287 62 -150 5 -167 4 -172 -12z m318 -170 c19 -18 25 -35 25 -69 0
-61 -31 -86 -106 -86 l-54 0 0 83 c0 46 3 87 7 90 3 4 28 7 55 7 39 0 54 -5
73 -25z m-7 -351 c31 -35 30 -103 -2 -141 -21 -24 -31 -27 -80 -27 -31 0 -59
4 -64 9 -4 6 -6 47 -4 93 3 74 6 84 25 92 36 16 100 2 125 -26z"/>
<path d="M787 1368 c-4 -24 -9 -102 -13 -175 l-7 -132 26 -12 c44 -20 57 -7
57 60 0 82 5 91 51 91 l38 0 3 -72 c3 -69 4 -73 30 -82 15 -5 31 -7 35 -3 3 4
11 81 16 172 11 182 8 195 -44 195 l-29 0 0 -70 0 -70 -45 0 -45 0 6 53 c7 60
-9 87 -51 87 -19 0 -24 -6 -28 -42z"/>
<path d="M1097 1357 c-4 -29 -10 -106 -13 -171 -9 -142 -6 -146 92 -146 69 0
94 15 94 56 0 22 -3 24 -55 24 l-55 0 0 35 c0 32 3 35 29 35 34 0 54 20 49 52
-2 18 -10 24 -36 26 -31 3 -33 6 -30 35 3 30 6 32 48 37 42 5 45 7 48 38 l3
32 -84 0 -84 0 -6 -53z"/>
<path d="M1327 1343 c-4 -38 -9 -116 -13 -174 -8 -124 -5 -129 88 -129 61 0
78 11 78 52 0 27 -2 28 -45 28 l-45 0 5 83 c3 45 8 101 10 125 6 56 -8 82 -44
82 -27 0 -28 -2 -34 -67z"/>
<path d="M1536 1393 c-3 -10 -8 -88 -12 -174 -6 -152 -6 -157 14 -168 40 -21
49 -14 57 44 l6 55 43 0 c33 0 48 6 68 28 53 56 60 161 13 208 -21 21 -33 24
-104 24 -67 0 -80 -3 -85 -17z m134 -68 c24 -29 -6 -116 -39 -115 -25 1 -31
20 -25 73 6 50 9 57 29 57 12 0 28 -7 35 -15z"/>
<path d="M802 916 c-45 -32 -45 -32 -37 -55 4 -14 15 -21 32 -21 l25 0 -7
-120 c-8 -136 -3 -150 51 -150 29 0 34 4 34 23 0 12 5 87 11 167 10 143 10
145 -12 163 -28 23 -57 21 -97 -7z"/>
<path d="M1075 924 c-74 -38 -99 -95 -94 -213 4 -68 8 -83 28 -105 55 -58 158
-54 217 10 39 41 59 115 51 194 -6 64 -25 101 -63 118 -35 17 -104 15 -139 -4z
m92 -76 c17 -22 22 -71 12 -122 -15 -82 -62 -112 -95 -61 -21 32 -15 131 9
169 19 28 57 35 74 14z"/>
<path d="M1363 914 c-24 -14 -43 -31 -43 -38 0 -19 22 -36 47 -36 19 0 22 -4
19 -22 -3 -13 -8 -67 -11 -121 -7 -112 -1 -127 50 -127 33 0 33 0 39 58 12
121 16 278 8 289 -17 26 -65 24 -109 -3z"/>
<path d="M1548 649 c-26 -15 -24 -76 2 -84 33 -10 60 12 60 49 0 43 -25 57
-62 35z"/>
</g>
</svg>
